<?xml version="1.0" standalone="no"?>
<!DOCTYPE svg PUBLIC "-//W3C//DTD SVG 20010904//EN"
 "http://www.w3.org/TR/2001/REC-SVG-20010904/DTD/svg10.dtd">
<svg version="1.0" xmlns="http://www.w3.org/2000/svg"
 width="350.000000pt" height="350.000000pt" viewBox="0 0 350.000000 350.000000"
 preserveAspectRatio="xMidYMid meet">
<metadata>
Created by potrace 1.11, written by Peter Selinger 2001-2013
</metadata>
<g transform="translate(0.000000,350.000000) scale(0.100000,-0.100000)"
fill="#000000" stroke="none">
<path d="M0 3351 l0 -149 58 -4 c42 -2 60 1 69 12 11 13 15 13 43 -2 18 -10
42 -18 54 -18 12 0 28 -6 34 -12 9 -9 15 -10 20 -2 9 14 91 23 117 13 17 -6
16 -8 -10 -10 -75 -5 83 -17 233 -18 120 -1 172 -5 199 -16 29 -12 85 -15 312
-13 152 1 243 4 204 5 -40 2 -73 7 -73 11 0 15 37 30 51 21 8 -5 85 -9 172 -9
150 0 157 -1 157 -20 0 -18 7 -20 80 -20 47 0 80 4 80 10 0 12 256 12 285 0
17 -7 14 -9 -13 -9 -19 -1 -31 -5 -27 -11 9 -14 101 -12 240 5 88 12 169 15
305 11 102 -3 308 -8 458 -11 227 -5 272 -9 272 -21 0 -10 12 -14 40 -14 22 0
40 5 40 10 0 15 31 12 50 -5 10 -9 25 -13 34 -9 14 5 16 30 16 215 l0 209
-1750 0 -1750 0 0 -149z m2183 -228 c-13 -2 -33 -2 -45 0 -13 2 -3 4 22 4 25
0 35 -2 23 -4z"/>
<path d="M2440 3109 c0 -8 19 -10 66 -5 74 8 144 -1 122 -15 -8 -6 14 -8 57
-7 57 3 70 6 73 21 3 16 -10 17 -157 17 -114 0 -161 -3 -161 -11z"/>
<path d="M1090 3090 c0 -5 5 -10 11 -10 5 0 7 5 4 10 -3 6 -8 10 -11 10 -2 0
-4 -4 -4 -10z"/>
<path d="M3190 3090 c0 -5 6 -10 14 -10 8 0 18 5 21 10 3 6 -3 10 -14 10 -12
0 -21 -4 -21 -10z"/>
<path d="M1045 3080 c-3 -5 -1 -10 4 -10 6 0 11 5 11 10 0 6 -2 10 -4 10 -3 0
-8 -4 -11 -10z"/>
<path d="M2778 3073 c12 -2 32 -2 45 0 12 2 2 4 -23 4 -25 0 -35 -2 -22 -4z"/>
<path d="M1055 3052 c18 -13 15 -32 -5 -32 -14 0 -20 -7 -20 -21 0 -11 -15
-33 -32 -50 -25 -22 -28 -29 -15 -29 17 0 17 -1 0 -24 -10 -13 -21 -22 -25
-19 -5 2 -8 0 -8 -6 0 -5 -9 -13 -21 -16 -14 -5 -18 -12 -14 -23 4 -10 9 -32
12 -49 4 -25 1 -33 -11 -33 -9 0 -16 -5 -16 -11 0 -6 9 -9 20 -6 13 3 21 -1
25 -13 4 -12 12 -16 25 -13 16 4 19 2 13 -13 -4 -11 -8 -13 -11 -6 -3 9 -9 9
-23 1 -11 -5 -17 -14 -15 -18 6 -10 -64 2 -85 14 -8 5 -32 23 -54 41 -22 17
-51 35 -65 38 -14 4 -38 14 -55 21 -55 25 -70 28 -135 31 -62 3 -68 1 -155
-50 -144 -86 -173 -98 -229 -97 -34 0 -68 -8 -103 -25 l-53 -25 0 -1309 0
-1310 1750 0 1750 0 0 1220 0 1220 -22 -5 c-69 -16 -353 -5 -388 15 -28 16
-115 19 -145 6 -11 -5 -76 -10 -145 -11 -69 -2 -155 -6 -191 -10 l-67 -8 -108
65 c-60 36 -142 82 -182 102 -40 20 -90 52 -111 71 -43 39 -72 43 -116 17 -17
-11 -47 -22 -67 -26 -21 -4 -67 -21 -103 -38 -55 -25 -75 -30 -118 -25 -30 2
-75 -2 -107 -10 -30 -8 -84 -15 -120 -16 -54 -1 -73 4 -110 26 -43 26 -171
138 -140 123 8 -4 6 0 -4 8 -18 14 -18 16 -3 16 15 0 15 3 5 20 -15 24 -28 26
-28 5 0 -8 -4 -15 -10 -15 -5 0 -10 5 -10 10 0 16 -57 12 -74 -6 -15 -14 -18
-14 -33 1 -15 15 -17 15 -25 1 -5 -9 -14 -13 -20 -10 -6 4 -14 0 -19 -7 -6 -9
-9 0 -9 27 0 41 20 72 39 60 5 -3 12 0 15 6 5 10 7 10 12 1 8 -17 34 -4 27 13
-6 16 5 18 27 4 21 -13 32 9 14 28 -12 12 -22 12 -57 3 -73 -20 -77 -20 -77
-5 0 8 10 14 25 14 15 0 25 6 25 14 0 8 6 17 13 20 8 3 4 11 -12 26 l-24 21
36 -4 c42 -5 44 -2 20 26 -17 18 -17 19 1 32 26 19 11 35 -32 35 -20 0 -32 -4
-27 -8z m2 -138 c-3 -3 -12 -4 -19 -1 -8 3 -5 6 6 6 11 1 17 -2 13 -5z m-68
-76 c6 10 10 8 14 -9 3 -12 4 -26 1 -31 -9 -14 -44 16 -44 37 0 17 2 17 10 5
8 -12 12 -13 19 -2z m-9 -78 c0 -5 -2 -10 -4 -10 -3 0 -8 5 -11 10 -3 6 -1 10
4 10 6 0 11 -4 11 -10z m2280 -1105 c0 -10 -7 -11 -35 -3 -19 6 -32 14 -30 18
7 12 65 -2 65 -15z m-110 -95 c0 -5 -7 -10 -16 -10 -8 0 -12 5 -9 10 3 6 10
10 16 10 5 0 9 -4 9 -10z"/>
</g>
</svg>
